# xmcd
#
# Track frame offsets:
#	150
#	17685
#	36710
#	63482
#	77105
#	104115
#	127600
#	148402
#	179275
#	208210
#	227027
#	242202
#	257480
#	274757
#
# Disc length: 3909 seconds
# Revision: 0
# Processed by: cddbd v1.5.2PL0 Copyright (c) Steve Scherf et al.
# Submitted via: dBpowerAMP V12.0
#
DISCID=d30f430e
DTITLE=Norman Blake - Chattanooga Sugar Babe
DYEAR=1998
DGENRE=Country
TTITLE0=The Rescue From Moose River Goldmine
TTITLE1=The Weathered Old Caboose Behind The Train
TTITLE2=Ol' Bill Miner (The Gentleman Bandit)
TTITLE3=Poor Old Dad
TTITLE4=Chattanooga Sugar Babe
TTITLE5=Platonia The Pride Of The Plains
TTITLE6=Dr. Edmundo's Favorite Portuguese Waltz
TTITLE7=The Founding Of The Famous C.P.R.
TTITLE8=Paramount Rag
TTITLE9=Keep Smiling Old Pal
TTITLE10=Balmullo House/Broke Down Gambler
TTITLE11=Ragtime Texas
TTITLE12=Chattanooga Rag
TTITLE13=Dixie Flyer Blues
EXTD=
EXTT0=
EXTT1=
EXTT2=
EXTT3=
EXTT4=
EXTT5=
EXTT6=
EXTT7=
EXTT8=
EXTT9=
EXTT10=
EXTT11=
EXTT12=
EXTT13=
PLAYORDER=
